<svg width="65" height="65" viewBox="0 0 65 65" fill="none" xmlns="http://www.w3.org/2000/svg">
<path d="M46.0417 52.8125C46.0417 48.3248 39.9777 44.6875 32.5 44.6875C25.0223 44.6875 18.9583 48.3248 18.9583 52.8125M56.875 44.6875C56.875 41.3562 53.5329 38.4935 48.75 37.2396M8.125 44.6875C8.125 41.3562 11.4671 38.4935 16.25 37.2396M48.75 26.3683C49.5524 25.659 50.2066 24.798 50.675 23.8349C51.1435 22.8719 51.4169 21.8257 51.4796 20.7565C51.5423 19.6874 51.393 18.6164 51.0403 17.6052C50.6876 16.594 50.1385 15.6625 49.4245 14.8642C48.7105 14.066 47.8457 13.4168 46.8799 12.954C45.9142 12.4911 44.8664 12.2238 43.7969 12.1673C42.7274 12.1108 41.6574 12.2664 40.6482 12.6249C39.6391 12.9835 38.7107 13.538 37.9167 14.2567M16.25 26.3683C14.6583 24.9279 13.7013 22.9161 13.5882 20.7724C13.475 18.6286 14.2148 16.5272 15.6459 14.9272C17.0771 13.3272 19.0833 12.3585 21.2263 12.2329C23.3693 12.1073 25.475 12.8348 27.0833 14.2567M32.5 36.5625C30.3451 36.5625 28.2785 35.7065 26.7548 34.1827C25.231 32.659 24.375 30.5924 24.375 28.4375C24.375 26.2826 25.231 24.216 26.7548 22.6922C28.2785 21.1685 30.3451 20.3125 32.5 20.3125C34.6549 20.3125 36.7215 21.1685 38.2452 22.6922C39.769 24.216 40.625 26.2826 40.625 28.4375C40.625 30.5924 39.769 32.659 38.2452 34.1827C36.7215 35.7065 34.6549 36.5625 32.5 36.5625Z" stroke="#FEFEFE" stroke-width="5" stroke-linecap="round" stroke-linejoin="round"/>
</svg>
