<svg width="65" height="65" viewBox="0 0 65 65" fill="none" xmlns="http://www.w3.org/2000/svg">
<path d="M23.56 28.8329L23.2783 27.5058M36.8064 26.0162L36.5247 24.6891M23.021 42.1687C26.4281 43.0246 30.2956 43.0246 34.1875 41.9819C38.0766 40.9391 41.4241 39.0054 43.9483 36.5625" stroke="white" stroke-width="5" stroke-linecap="round" stroke-linejoin="round"/>
<path d="M34.0898 42.3502L35.3844 44.9881C35.6186 45.4685 35.9453 45.898 36.3457 46.2519C36.7462 46.6058 37.2125 46.8772 37.718 47.0506C38.2236 47.224 38.7583 47.296 39.2917 47.2623C39.8251 47.2287 40.3466 47.0902 40.8263 46.8547C41.306 46.6192 41.7346 46.2913 42.0874 45.8899C42.4402 45.4885 42.7104 45.0214 42.8824 44.5154C43.0544 44.0094 43.1249 43.4745 43.0898 42.9412C43.0547 42.4079 42.9148 41.8868 42.678 41.4077L41.4321 38.8754" stroke="white" stroke-width="5" stroke-linecap="round" stroke-linejoin="round"/>
<path d="M32.5 56.875C45.9619 56.875 56.875 45.9619 56.875 32.5C56.875 19.0381 45.9619 8.125 32.5 8.125C19.0381 8.125 8.125 19.0381 8.125 32.5C8.125 45.9619 19.0381 56.875 32.5 56.875Z" stroke="white" stroke-width="5" stroke-linecap="round" stroke-linejoin="round"/>
</svg>
