<svg width="65" height="65" viewBox="0 0 65 65" fill="none" xmlns="http://www.w3.org/2000/svg">
<path d="M27.0833 13.5417L32.5 8.125M21.6667 43.3333L43.3333 21.6667M32.5 56.875L37.9167 51.4583M44.6875 51.4583C46.4832 51.4583 48.2054 50.745 49.4752 49.4752C50.745 48.2054 51.4583 46.4832 51.4583 44.6875C51.4583 42.8918 50.745 41.1696 49.4752 39.8998C48.2054 38.63 46.4832 37.9167 44.6875 37.9167C42.8918 37.9167 41.1696 38.63 39.8998 39.8998C38.63 41.1696 37.9167 42.8918 37.9167 44.6875C37.9167 46.4832 38.63 48.2054 39.8998 49.4752C41.1696 50.745 42.8918 51.4583 44.6875 51.4583ZM20.3125 27.0833C22.1082 27.0833 23.8304 26.37 25.1002 25.1002C26.37 23.8304 27.0833 22.1082 27.0833 20.3125C27.0833 18.5168 26.37 16.7946 25.1002 15.5248C23.8304 14.255 22.1082 13.5417 20.3125 13.5417C18.5168 13.5417 16.7946 14.255 15.5248 15.5248C14.255 16.7946 13.5417 18.5168 13.5417 20.3125C13.5417 22.1082 14.255 23.8304 15.5248 25.1002C16.7946 26.37 18.5168 27.0833 20.3125 27.0833ZM14.8958 56.875C16.6916 56.875 18.4138 56.1616 19.6835 54.8919C20.9533 53.6221 21.6667 51.8999 21.6667 50.1042C21.6667 48.3084 20.9533 46.5862 19.6835 45.3165C18.4138 44.0467 16.6916 43.3333 14.8958 43.3333C13.1001 43.3333 11.3779 44.0467 10.1081 45.3165C8.83835 46.5862 8.125 48.3084 8.125 50.1042C8.125 51.8999 8.83835 53.6221 10.1081 54.8919C11.3779 56.1616 13.1001 56.875 14.8958 56.875ZM50.1042 21.6667C51.8999 21.6667 53.6221 20.9533 54.8919 19.6835C56.1616 18.4138 56.875 16.6916 56.875 14.8958C56.875 13.1001 56.1616 11.3779 54.8919 10.1081C53.6221 8.83835 51.8999 8.125 50.1042 8.125C48.3084 8.125 46.5862 8.83835 45.3165 10.1081C44.0467 11.3779 43.3333 13.1001 43.3333 14.8958C43.3333 16.6916 44.0467 18.4138 45.3165 19.6835C46.5862 20.9533 48.3084 21.6667 50.1042 21.6667Z" stroke="white" stroke-width="5" stroke-linecap="round" stroke-linejoin="round"/>
</svg>
