<?xml version="1.0" encoding="UTF-8"?>
<svg id="Calque_1" data-name="Calque 1" xmlns="http://www.w3.org/2000/svg" viewBox="0 0 336.38 204.32">
  <defs>
    <style>
      .cls-1 {
        fill: #f6ff8b;
      }

      .cls-1, .cls-2, .cls-3, .cls-4 {
        stroke-width: 0px;
      }

      .cls-2 {
        fill: #9034b0;
      }

      .cls-3 {
        fill: #d525e5;
      }

      .cls-4 {
        fill: #fff;
      }
    </style>
  </defs>
  <g>
    <path class="cls-3" d="m8.5,108.29s0-.06,0-.1c0,.03,0,.06,0,.1Z"/>
    <path class="cls-3" d="m8.49,102.16s0-.06,0-.1c0,.03,0,.06,0,.1Z"/>
    <path class="cls-2" d="m38.95,0c-8.92,0-17.59,1.02-25.89,2.92,47.59,10.91,82.91,51.2,82.91,99.24S60.64,190.49,13.06,201.4c8.3,1.9,16.97,2.92,25.89,2.92,60.09,0,108.8-45.74,108.8-102.16S99.04,0,38.95,0Z"/>
  </g>
  <g>
    <path class="cls-4" d="m196.28,97.17v55.17h-21.8v-54.5c0-15.48-7.81-22.74-20.05-22.74s-21.93,7.67-21.93,24.22v53.02h-21.8V58.15h21.13v11.44c6.46-8.75,16.42-13.05,28.8-13.05,22.34,0,35.66,14.4,35.66,40.64Z"/>
    <path class="cls-4" d="m250.1,75.64v59.21h16.28v17.49h-54.5v-17.49h16.42v-59.21h-16.42v-17.49h54.5v17.49h-16.28Z"/>
    <path class="cls-4" d="m320.1,75.64v59.21h16.28v17.49h-54.5v-17.49h16.42v-59.21h-16.42v-17.49h54.5v17.49h-16.28Z"/>
  </g>
  <g>
    <path class="cls-1" d="m277.25,28.53c.13,0,.25,0,.38,0-.13,0-.25,0-.38,0,0,0,0,.01,0,.02Z"/>
    <path class="cls-1" d="m304.01,1.98s0,0,0,0c0,.05,0,.11,0,.16,0-.05,0-.11,0-.16,0,0,0,0,0,0Z"/>
    <path class="cls-1" d="m304.01,54.9c0,.2-.01.4-.02.6,0,0,.01,0,.02,0s.01,0,.02,0c0-.2-.02-.4-.02-.6Z"/>
    <path class="cls-1" d="m335.4,28.52c-14.57,0-26.38-11.81-26.38-26.38,0,14.57-11.81,26.38-26.38,26.38,14.57,0,26.38,11.81,26.38,26.38,0-14.57,11.81-26.38,26.38-26.38Z"/>
    <path class="cls-1" d="m330.77,28.51c-.13,0-.25,0-.38,0,.13,0,.25,0,.38,0,0,0,0-.01,0-.02Z"/>
  </g>
  <g>
    <path class="cls-1" d="m212.37,28.69c.13,0,.25,0,.38,0-.13,0-.25,0-.38,0,0,0,0,.01,0,.02Z"/>
    <path class="cls-1" d="m239.13,2.14s0,0,0,0c0,.05,0,.11,0,.16,0-.05,0-.11,0-.16,0,0,0,0,0,0Z"/>
    <path class="cls-1" d="m239.13,55.06c0,.2-.01.4-.02.6,0,0,.01,0,.02,0s.01,0,.02,0c0-.2-.02-.4-.02-.6Z"/>
    <path class="cls-1" d="m265.52,28.68c-14.57,0-26.38-11.81-26.38-26.38,0,14.57-11.81,26.38-26.38,26.38,14.57,0,26.38,11.81,26.38,26.38,0-14.57,11.81-26.38,26.38-26.38Z"/>
    <path class="cls-1" d="m265.89,28.67c-.13,0-.25,0-.38,0,.13,0,.25,0,.38,0,0,0,0-.01,0-.02Z"/>
  </g>
  <path class="cls-4" d="m47.9,54.52C21.45,54.52,0,75.97,0,102.43s21.45,47.9,47.9,47.9,47.9-21.45,47.9-47.9-21.45-47.9-47.9-47.9Zm1,17.58s0,0,0,0c0,.06,0,.12,0,.18,0-.06,0-.12,0-.18,0,0,0,0,0,0Zm0,60.64s-.01,0-.02,0c0-.23.02-.46.02-.69,0,.23.01.46.02.69,0,0-.01,0-.02,0Zm-1-.69c0-16.51-13.38-29.89-29.89-29.89,16.51,0,29.89-13.38,29.89-29.89,0,16.51,13.38,29.89,29.89,29.89-16.51,0-29.89,13.38-29.89,29.89Zm30.89-29.89c.14,0,.28,0,.43-.01,0,0,0,.01,0,.02-.14,0-.28-.01-.43-.01Z"/>
</svg>